{"title":"Ghayal Once Again 2016 TS Hindi Movies xviD-TvMovize.mp4","uid":13942415,"size":695020245,"categoryP":"video","categoryS":"movies","magnet":"?xt=urn:btih:c79026dc8ac0d19ccee13a8b116f0807c4ad40aa&amp;dn=Ghayal+Once+Again+2016+TS+Hindi+Movies+xviD-TvMovize.mp4&amp;tr=udp%3A%2F%2Ftracker.leechers-paradise.org%3A6969&amp;tr=udp%3A%2F%2Fzer0day.ch%3A1337&amp;tr=udp%3A%2F%2Fopen.demonii.com%3A1337&amp;tr=udp%3A%2F%2Ftracker.coppersurfer.tk%3A6969&amp;tr=udp%3A%2F%2Fexodus.desync.com%3A6969","seeders":6,"leechers":0,"uploader":"TvMovize","files":1,"time":1458475337,"description":"Ghayal Once Again 2016 TS Hindi Movies xviD-TvMovize.mp4\r\n\r\n++ ScreenShots ++\r\n \nhttp://www.image2be.com/movie/GhayalOnceAgain/1.html  \nhttp://www.image2be.com/movie/GhayalOnceAgain/2.html  \nhttp://www.image2be.com/movie/GhayalOnceAgain/3.html  \nhttp://www.image2be.com/movie/GhayalOnceAgain/4.html  \nhttp://www.image2be.com/movie/GhayalOnceAgain/5.html \r\n\r\n++ Info ++\r\n\r\n\r\nFormat : MPEG-4 \r\nFormat profile : Base Media / Version 2 \r\nCodec ID : mp42 (isom/iso2/avc1/mp41) \r\nFile size : 663 MiB \r\nDuration : 2h 9mn \r\nOverall bit rate mode : Variable \r\nOverall bit rate : 717 Kbps \r\nEncoded date : UTC 2016-02-06 01:15:26 \r\nTagged date : UTC 2016-02-06 01:15:26 \r\nWriting application : HandBrake 0.10.2 2015061000 \r\n\r\nVideo \r\nID : 1 \r\nFormat : AVC \r\nFormat/Info : Advanced Video Codec \r\nFormat profile :    \r\nFormat settings, CABAC : Yes \r\nFormat settings, ReFrames : 4 frames \r\nCodec ID : avc1 \r\nCodec ID/Info : Advanced Video Coding \r\nDuration : 2h 9mn \r\nBit rate : 599 Kbps \r\nWidth : 640 pixels \r\nHeight : 272 pixels \r\nDisplay aspect ratio : 2.35:1 \r\nFrame rate mode : Constant \r\nFrame rate : 25.000 fps \r\nColor space : YUV \r\nChroma subsampling : 4:2:0 \r\nBit depth : 8 bits \r\nScan type : Progressive \r\nBits/(Pixel*Frame) : 0.138 \r\nStream size : 553 MiB (83%) \r\nWriting library : x264 core 142 r2491 24e4fed \r\nEncoding settings : cabac=1 / ref=3 / deblock=1:0:0 / analyse=0x3:0x113 / me=hex / subme=7 / psy=1 / psy_rd=1.00:0.00 / mixed_ref=1 / me_range=16 / chroma_me=1 / trellis=1 / 8x8dct=1 / cqm=0 / deadzone=21,11 / fast_pskip=1 / chroma_qp_offset=-2 / threads=12 / lookahead_threads=2 / sliced_threads=0 / nr=0 / decimate=1 / interlaced=0 / bluray_compat=0 / constrained_intra=0 / bframes=3 / b_pyramid=2 / b_adapt=1 / b_bias=0 / direct=1 / weightb=1 / open_gop=0 / weightp=2 / keyint=250 / keyint_min=25 / scenecut=40 / intra_refresh=0 / rc_lookahead=40 / rc=abr / mbtree=1 / bitrate=599 / ratetol=1.0 / qcomp=0.60 / qpmin=0 / qpmax=69 / qpstep=4 / vbv_maxrate=17500 / vbv_bufsize=17500 / nal_hrd=none / filler=0 / ip_ratio=1.40 / aq=1:1.00 \r\nEncoded date : UTC 2016-02-06 01:15:26 \r\nTagged date : UTC 2016-02-06 01:15:26 \r\nColor range : Limited \r\nColor primaries : BT.601 PAL \r\nTransfer characteristics : BT.709 \r\nMatrix coefficients : BT.601 \r\n\r\nAudio \r\nID : 2 \r\nFormat : AAC \r\nFormat/Info : Advanced Audio Codec \r\nFormat profile : LC \r\nCodec ID : 40 \r\nDuration : 2h 9mn \r\nBit rate mode : Variable \r\nBit rate : 112 Kbps \r\nChannel(s) : 2 channels \r\nChannel positions : Front: L R \r\nSampling rate : 48.0 KHz \r\nFrame rate : 46.875 fps (1024 spf) \r\nCompression mode : Lossy \r\nStream size : 104 MiB (16%) \r\nTitle : Stereo / Stereo \r\nDefault : Yes \r\nAlternate group : 1 \r\nEncoded date : UTC 2016-02-06 01:15:26 \r\nTagged date : UTC 2016-02-06 01:15:26","torrent":{"xt":"urn:btih:c79026dc8ac0d19ccee13a8b116f0807c4ad40aa","amp;dn":"Ghayal+Once+Again+2016+TS+Hindi+Movies+xviD-TvMovize.mp4","amp;tr":["udp%3A%2F%2Ftracker.leechers-paradise.org%3A6969","udp%3A%2F%2Fzer0day.ch%3A1337","udp%3A%2F%2Fopen.demonii.com%3A1337","udp%3A%2F%2Ftracker.coppersurfer.tk%3A6969","udp%3A%2F%2Fexodus.desync.com%3A6969"],"infoHash":"c79026dc8ac0d19ccee13a8b116f0807c4ad40aa","infoHashBuffer":{"type":"Buffer","data":[199,144,38,220,138,192,209,156,206,225,58,139,17,111,8,7,196,173,64,170]},"announce":[],"urlList":[]}}